# xmcd
#
# Track frame offsets:
#	150
#	17208
#	36890
#	56014
#	74706
#	92986
#	110187
#	123860
#	146115
#	164343
#	182538
#	200409
#	222259
#	240640
#
# Disc length: 3460 seconds
#
# Revision: 1
# Processed by: cddbd v1.5.2PL0 Copyright (c) Steve Scherf et al.
# Submitted via: EasyCDDAExtractor 15.3.0.1
#
DISCID=d70d820e
DTITLE=Melina Leon - Mis Favoritas
DYEAR=2011
DGENRE=Latin
TTITLE0=Corazon De Mujer (Version Merengue)
TTITLE1=Si No Vas A Decir Nada
TTITLE2=Un Hombre De Verdad (Version Merengue)
TTITLE3=Con Los Pies Sobre La Tierra
TTITLE4=Quiero Ser Tuya (Version Salsa)
TTITLE5=La Persona Equivocada (Duo Con Victor Manuelle) (Version Bolero)
TTITLE6=Que Has Hecho
TTITLE7=Cuando Una Mujer (Version Balada)
TTITLE8=Baño De Luna (Version Merengue)
TTITLE9=Por Un Muchacho
TTITLE10=Quedate Con El
TTITLE11=Detras De Mi Ventana
TTITLE12=Tu Amor
TTITLE13=Demasiado Mujer
EXTD=
EXTT0=
EXTT1=
EXTT2=
EXTT3=
EXTT4=
EXTT5=
EXTT6=
EXTT7=
EXTT8=
EXTT9=
EXTT10=
EXTT11=
EXTT12=
EXTT13=
PLAYORDER=
